<mxfile host="app.diagrams.net" modified="2022-03-20T15:10:01.037Z" agent="5.0 (Macintosh; Intel Mac OS X 10_15_6) AppleWebKit/605.1.15 (KHTML, like Gecko) Version/15.3 Safari/605.1.15" etag="z3jiWEbNGZ1xymMXZjHz" version="17.1.3" type="github">
  <diagram id="WrtnJPOUH6YZKBtfhys7" name="Page-1">
    <mxGraphModel dx="682" dy="538" grid="1" gridSize="10" guides="1" tooltips="1" connect="1" arrows="1" fold="1" page="1" pageScale="1" pageWidth="827" pageHeight="1169" math="0" shadow="0">
      <root>
        <mxCell id="0" />
        <mxCell id="1" parent="0" />
        <mxCell id="1y9OTA7gdQjxtw_s0e1w-1" value="«abstract»&lt;br&gt;&lt;b&gt;Priority Queue&lt;/b&gt;" style="html=1;" parent="1" vertex="1">
          <mxGeometry x="40" y="40" width="110" height="50" as="geometry" />
        </mxCell>
        <mxCell id="1y9OTA7gdQjxtw_s0e1w-3" value="Tree" style="html=1;" parent="1" vertex="1">
          <mxGeometry x="269" y="120" width="110" height="50" as="geometry" />
        </mxCell>
        <mxCell id="1y9OTA7gdQjxtw_s0e1w-6" style="edgeStyle=orthogonalEdgeStyle;rounded=0;orthogonalLoop=1;jettySize=auto;html=1;endArrow=block;endFill=0;" parent="1" source="1y9OTA7gdQjxtw_s0e1w-5" target="1y9OTA7gdQjxtw_s0e1w-3" edge="1">
          <mxGeometry relative="1" as="geometry" />
        </mxCell>
        <mxCell id="1y9OTA7gdQjxtw_s0e1w-7" value="implement" style="edgeStyle=orthogonalEdgeStyle;rounded=0;orthogonalLoop=1;jettySize=auto;html=1;entryX=1;entryY=0.5;entryDx=0;entryDy=0;endArrow=block;endFill=0;dashed=1;" parent="1" source="1y9OTA7gdQjxtw_s0e1w-5" target="1y9OTA7gdQjxtw_s0e1w-1" edge="1">
          <mxGeometry relative="1" as="geometry" />
        </mxCell>
        <mxCell id="1y9OTA7gdQjxtw_s0e1w-5" value="Heap" style="html=1;" parent="1" vertex="1">
          <mxGeometry x="269" y="40" width="110" height="50" as="geometry" />
        </mxCell>
      </root>
    </mxGraphModel>
  </diagram>
</mxfile>
